<svg width="12" height="12" viewBox="0 0 12 12" fill="none" xmlns="http://www.w3.org/2000/svg">
<path d="M2.14645 2.14645C2.24021 2.05268 2.36739 2 2.5 2H8C8.27614 2 8.5 1.77614 8.5 1.5C8.5 1.22386 8.27614 1 8 1H2.5C2.10218 1 1.72064 1.15804 1.43934 1.43934C1.15804 1.72064 1 2.10218 1 2.5V9.5C1 9.89783 1.15804 10.2794 1.43934 10.5607C1.72064 10.842 2.10217 11 2.5 11H9.5C9.89782 11 10.2794 10.842 10.5607 10.5607C10.842 10.2794 11 9.89783 11 9.5V6C11 5.72386 10.7761 5.5 10.5 5.5C10.2239 5.5 10 5.72386 10 6V9.5C10 9.63261 9.94732 9.75978 9.85355 9.85355C9.75978 9.94732 9.63261 10 9.5 10H2.5C2.36739 10 2.24021 9.94732 2.14645 9.85355C2.05268 9.75978 2 9.63261 2 9.5V2.5C2 2.36739 2.05268 2.24021 2.14645 2.14645Z" fill="#F31D1E"/>
<path d="M6.35355 7.35355L11.3536 2.35355C11.5488 2.15829 11.5488 1.84171 11.3536 1.64645C11.1583 1.45118 10.8417 1.45118 10.6464 1.64645L6 6.29289L4.85355 5.14645C4.65829 4.95118 4.34171 4.95118 4.14645 5.14645C3.95118 5.34171 3.95118 5.65829 4.14645 5.85355L5.64645 7.35355C5.84171 7.54882 6.15829 7.54882 6.35355 7.35355Z" fill="#F31D1E"/>
</svg>
