<svg width="17" height="14" viewBox="0 0 17 14" fill="none" xmlns="http://www.w3.org/2000/svg">
<g clip-path="url(#clip0_4819_69739)">
<path d="M4.93573 3.77847C4.78435 3.62709 4.78435 3.38167 4.93573 3.23029L6.30617 1.85984C6.45755 1.70847 6.70298 1.70847 6.85435 1.85984L8.2248 3.23029C8.37618 3.38167 8.37618 3.62709 8.2248 3.77847C8.07343 3.92985 7.828 3.92985 7.67662 3.77847L6.96789 3.06973L6.96789 11.453C6.96789 11.6671 6.79434 11.8406 6.58026 11.8406C6.36619 11.8406 6.19264 11.6671 6.19264 11.453L6.19264 3.06973L5.4839 3.77847C5.33253 3.92985 5.0871 3.92985 4.93573 3.77847Z" fill="#2D3648"/>
</g>
<g clip-path="url(#clip1_4819_69739)">
<path d="M11.8658 10.3563C12.0172 10.5077 12.0172 10.7531 11.8658 10.9045L10.4953 12.2749C10.344 12.4263 10.0985 12.4263 9.94716 12.2749L8.57671 10.9045C8.42534 10.7531 8.42534 10.5077 8.57671 10.3563C8.72809 10.2049 8.97352 10.2049 9.12489 10.3563L9.83363 11.065L9.83363 2.68178C9.83363 2.46771 10.0072 2.29416 10.2213 2.29416C10.4353 2.29416 10.6089 2.46771 10.6089 2.68178L10.6089 11.065L11.3176 10.3563C11.469 10.2049 11.7144 10.2049 11.8658 10.3563Z" fill="#2D3648"/>
</g>
<defs>
<clipPath id="clip0_4819_69739">
<rect width="9.30291" height="9.30291" fill="white" transform="translate(0.0020752 7.06738) rotate(-45)"/>
</clipPath>
<clipPath id="clip1_4819_69739">
<rect width="9.30291" height="9.30291" fill="white" transform="translate(16.7994 7.06738) rotate(135)"/>
</clipPath>
</defs>
</svg>
