<svg width="23" height="27" viewBox="0 0 23 27" fill="none" xmlns="http://www.w3.org/2000/svg">
<g id="contact-phonebook-2">
<path id="vector" d="M21.5 25.3182H4.22728C3.50396 25.3182 2.81027 25.0308 2.29879 24.5193C1.78734 24.008 1.5 23.3143 1.5 22.5908C1.5 21.8675 1.78734 21.1739 2.29879 20.6624C2.81027 20.151 3.50396 19.8637 4.22728 19.8637H19.6819C20.1641 19.8637 20.6266 19.6721 20.9676 19.3311C21.3086 18.9901 21.5 18.5277 21.5 18.0454V3.49995C21.5 3.01774 21.3086 2.55527 20.9676 2.2143C20.6266 1.87332 20.1641 1.68176 19.6819 1.68176H4.22728C3.51638 1.68151 2.83348 1.95884 2.32406 2.45467C1.81464 2.95052 1.51896 3.62567 1.5 4.33632V22.5183" stroke="black" stroke-width="2" stroke-linecap="round" stroke-linejoin="round"/>
<path id="vector_2" d="M19.682 19.8638V25.3184" stroke="black" stroke-width="2" stroke-linecap="round" stroke-linejoin="round"/>
<path id="Vector" d="M12.431 15.714C13.0474 15.9747 13.7307 16.0324 14.3821 15.8789C15.0334 15.7253 15.619 15.3684 16.054 14.8598L16.5105 14.4032C16.7091 14.2438 16.8384 14.0138 16.8714 13.7613C16.9043 13.5088 16.8383 13.2533 16.6872 13.0483L15.2145 11.5755C15.0095 11.4245 14.754 11.3585 14.5015 11.3915C14.249 11.4244 14.019 11.5537 13.8596 11.7523C13.7002 11.9509 13.4702 12.0802 13.2176 12.1131C12.9651 12.1461 12.7096 12.0801 12.5047 11.929L10.1482 9.57263C9.99718 9.36761 9.93122 9.11214 9.96415 8.85962C9.99708 8.60711 10.1264 8.3771 10.325 8.21771C10.5236 8.05831 10.6529 7.82829 10.6858 7.57577C10.7188 7.32326 10.6528 7.06778 10.5017 6.86277L9.02896 5.39003C8.82396 5.23895 8.56848 5.17299 8.31597 5.20592C8.06344 5.23886 7.83343 5.36815 7.67404 5.56676L7.21749 6.0233C6.71079 6.45965 6.35525 7.04519 6.20182 7.69601C6.04837 8.34683 6.10489 9.02953 6.36329 9.64627C7.85667 12.1366 9.94066 14.2206 12.431 15.714Z" stroke="black" stroke-width="2" stroke-linecap="round" stroke-linejoin="round"/>
</g>
</svg>
