<svg width="19" height="20" viewBox="0 0 19 20" fill="none" xmlns="http://www.w3.org/2000/svg">
<path fill-rule="evenodd" clip-rule="evenodd" d="M3.375 8.84603C3.375 5.90051 5.76281 3.5127 8.70833 3.5127C11.6539 3.5127 14.0417 5.90051 14.0417 8.84603C14.0417 10.2775 13.4777 11.5773 12.5598 12.5353C12.5301 12.5589 12.5015 12.5844 12.4741 12.6118C12.4466 12.6393 12.4211 12.6679 12.3976 12.6975C11.4396 13.6154 10.1398 14.1794 8.70833 14.1794C5.76281 14.1794 3.375 11.7915 3.375 8.84603ZM13.1385 14.6905C11.9077 15.6248 10.3728 16.1794 8.70833 16.1794C4.65825 16.1794 1.375 12.8961 1.375 8.84603C1.375 4.79594 4.65825 1.5127 8.70833 1.5127C12.7584 1.5127 16.0417 4.79594 16.0417 8.84603C16.0417 10.5105 15.4871 12.0455 14.5527 13.2763L17.332 16.0556C17.7226 16.4461 17.7226 17.0793 17.332 17.4698C16.9415 17.8603 16.3083 17.8603 15.9178 17.4698L13.1385 14.6905Z" fill="#474747"/>
</svg>
