<svg width="15" height="16" viewBox="0 0 15 16" fill="none" xmlns="http://www.w3.org/2000/svg">
<path d="M1.53711 4.65259H13.4601" stroke="#F31D1E" stroke-width="1.5" stroke-linecap="round" stroke-linejoin="round"/>
<path d="M3.02734 4.65259H11.9696V13.5948C11.9696 13.8583 11.8649 14.1111 11.6786 14.2974C11.4923 14.4837 11.2395 14.5884 10.976 14.5884H4.02093C3.75741 14.5884 3.50469 14.4837 3.31835 14.2974C3.13203 14.1111 3.02734 13.8583 3.02734 13.5948V4.65259Z" stroke="#F31D1E" stroke-width="1.5" stroke-linecap="round" stroke-linejoin="round"/>
<path d="M5.01465 4.65238V4.15559C5.01465 3.4968 5.27635 2.86499 5.74218 2.39916C6.20801 1.93333 6.83982 1.67163 7.49861 1.67163C8.15739 1.67163 8.7892 1.93333 9.25503 2.39916C9.72086 2.86499 9.98256 3.4968 9.98256 4.15559V4.65238" stroke="#F31D1E" stroke-width="1.5" stroke-linecap="round" stroke-linejoin="round"/>
<path d="M6.00781 7.63452V11.6104" stroke="#F31D1E" stroke-width="1.5" stroke-linecap="round" stroke-linejoin="round"/>
<path d="M8.98926 7.63452V11.6104" stroke="#F31D1E" stroke-width="1.5" stroke-linecap="round" stroke-linejoin="round"/>
</svg>
