<svg width="27" height="27" viewBox="0 0 27 27" fill="none" xmlns="http://www.w3.org/2000/svg">
<path d="M13.5 26C20.4037 26 26 20.4037 26 13.5C26 6.59644 20.4037 1 13.5 1C6.59644 1 1 6.59644 1 13.5C1 20.4037 6.59644 26 13.5 26Z" stroke="#3E3E3E" stroke-width="2" stroke-linecap="round" stroke-linejoin="round"/>
<path d="M13.5001 15.4231C16.1553 15.4231 18.3078 13.2706 18.3078 10.6154C18.3078 7.96019 16.1553 5.80771 13.5001 5.80771C10.8449 5.80771 8.69238 7.96019 8.69238 10.6154C8.69238 13.2706 10.8449 15.4231 13.5001 15.4231Z" stroke="#3E3E3E" stroke-width="2" stroke-linecap="round" stroke-linejoin="round"/>
<path d="M5.28809 22.9231C6.14624 21.5144 7.35234 20.3502 8.79041 19.5425C10.2285 18.7346 11.8502 18.3103 13.4996 18.3103C15.1491 18.3103 16.7708 18.7346 18.2088 19.5425C19.647 20.3502 20.8529 21.5144 21.7112 22.9231" stroke="#3E3E3E" stroke-width="2" stroke-linecap="round" stroke-linejoin="round"/>
</svg>
